<svg width="361" height="59" viewBox="0 0 361 59" fill="none" xmlns="http://www.w3.org/2000/svg">
<g filter="url(#filter0_d_25_25245)">
<rect x="2" y="1.74074" width="49.3704" height="54.2963" rx="6.37037" fill="white"/>
<path d="M15.4849 13.596H17.2822L19.6892 19.4709H19.7842L22.1912 13.596H23.9885V21.7037H22.5791V16.1336H22.5039L20.2632 21.68H19.2102L16.9694 16.1217H16.8942V21.7037H15.4849V13.596ZM28.177 21.8225C27.5831 21.8225 27.0685 21.6918 26.633 21.4305C26.1975 21.1693 25.8597 20.8037 25.6196 20.3339C25.382 19.8642 25.2633 19.3152 25.2633 18.6871C25.2633 18.0589 25.382 17.5086 25.6196 17.0362C25.8597 16.5638 26.1975 16.1969 26.633 15.9356C27.0685 15.6744 27.5831 15.5437 28.177 15.5437C28.7708 15.5437 29.2855 15.6744 29.7209 15.9356C30.1564 16.1969 30.4929 16.5638 30.7304 17.0362C30.9706 17.5086 31.0907 18.0589 31.0907 18.6871C31.0907 19.3152 30.9706 19.8642 30.7304 20.3339C30.4929 20.8037 30.1564 21.1693 29.7209 21.4305C29.2855 21.6918 28.7708 21.8225 28.177 21.8225ZM28.1849 20.6744C28.5069 20.6744 28.7761 20.586 28.9925 20.4092C29.2089 20.2297 29.3699 19.9895 29.4755 19.6886C29.5837 19.3878 29.6378 19.0526 29.6378 18.6831C29.6378 18.311 29.5837 17.9745 29.4755 17.6736C29.3699 17.3701 29.2089 17.1286 28.9925 16.9491C28.7761 16.7696 28.5069 16.6799 28.1849 16.6799C27.855 16.6799 27.5805 16.7696 27.3614 16.9491C27.145 17.1286 26.9827 17.3701 26.8745 17.6736C26.7689 17.9745 26.7162 18.311 26.7162 18.6831C26.7162 19.0526 26.7689 19.3878 26.8745 19.6886C26.9827 19.9895 27.145 20.2297 27.3614 20.4092C27.5805 20.586 27.855 20.6744 28.1849 20.6744ZM33.7402 18.1407V21.7037H32.3071V15.6229H33.6768V16.6562H33.7481C33.888 16.3157 34.111 16.0452 34.4171 15.8446C34.7259 15.644 35.1073 15.5437 35.5612 15.5437C35.9809 15.5437 36.3464 15.6335 36.6578 15.8129C36.9719 15.9924 37.2147 16.2524 37.3863 16.5928C37.5605 16.9333 37.6462 17.3463 37.6436 17.8319V21.7037H36.2105V18.0536C36.2105 17.6472 36.1049 17.3292 35.8938 17.0996C35.6853 16.8699 35.3963 16.7551 35.0268 16.7551C34.7761 16.7551 34.553 16.8106 34.3577 16.9214C34.1651 17.0296 34.0133 17.1866 33.9025 17.3925C33.7943 17.5984 33.7402 17.8478 33.7402 18.1407Z" fill="#344054"/>
<path d="M27.7034 35.9663V44.0741H26.2347V37.3955H26.1872L24.2909 38.6069V37.2609L26.3059 35.9663H27.7034Z" fill="#344054"/>
<rect x="2.39815" y="2.13889" width="48.5741" height="53.5" rx="5.97222" stroke="#D0D5DD" stroke-width="0.796296"/>
</g>
<g filter="url(#filter1_d_25_25245)">
<rect x="64.1111" y="1.74074" width="49.3704" height="54.2963" rx="6.37037" fill="#3F5BF6"/>
<path d="M79.2397 14.8272V13.596H85.7084V14.8272H83.2025V21.7037H81.7456V14.8272H79.2397ZM89.9405 19.1463V15.6229H91.3736V21.7037H89.984V20.6229H89.9207C89.7834 20.9634 89.5578 21.2418 89.2437 21.4583C88.9323 21.6747 88.5483 21.7829 88.0917 21.7829C87.6931 21.7829 87.3408 21.6945 87.0347 21.5176C86.7311 21.3382 86.4936 21.0782 86.3221 20.7377C86.1505 20.3946 86.0647 19.9803 86.0647 19.4947V15.6229H87.4978V19.273C87.4978 19.6583 87.6034 19.9644 87.8145 20.1914C88.0257 20.4184 88.3028 20.5319 88.6459 20.5319C88.857 20.5319 89.0616 20.4804 89.2595 20.3775C89.4575 20.2746 89.6198 20.1215 89.7465 19.9183C89.8758 19.7124 89.9405 19.4551 89.9405 19.1463ZM95.5393 21.8225C94.9296 21.8225 94.4031 21.6958 93.9597 21.4424C93.5189 21.1864 93.1798 20.8248 92.9423 20.3577C92.7047 19.8879 92.586 19.335 92.586 18.6989C92.586 18.0734 92.7047 17.5245 92.9423 17.052C93.1824 16.577 93.5176 16.2075 93.9478 15.9436C94.378 15.677 94.8834 15.5437 95.4641 15.5437C95.8388 15.5437 96.1925 15.6044 96.525 15.7258C96.8602 15.8446 97.1558 16.0293 97.4118 16.2801C97.6705 16.5308 97.8737 16.8501 98.0215 17.2381C98.1693 17.6234 98.2432 18.0827 98.2432 18.6158V19.0552H93.259V18.0893H96.8694C96.8668 17.8148 96.8074 17.5707 96.6913 17.3569C96.5752 17.1405 96.4129 16.9702 96.2044 16.8462C95.9985 16.7221 95.7583 16.6601 95.4838 16.6601C95.1909 16.6601 94.9336 16.7314 94.7119 16.8739C94.4902 17.0138 94.3173 17.1985 94.1933 17.4281C94.0719 17.6551 94.0098 17.9045 94.0072 18.1764V19.0196C94.0072 19.3733 94.0719 19.6768 94.2012 19.9301C94.3305 20.1809 94.5113 20.3735 94.7435 20.5081C94.9758 20.6401 95.2476 20.7061 95.5591 20.7061C95.7676 20.7061 95.9563 20.677 96.1252 20.619C96.2941 20.5583 96.4406 20.4699 96.5646 20.3537C96.6887 20.2376 96.7824 20.0938 96.8457 19.9222L98.1838 20.0727C98.0993 20.4263 97.9383 20.7351 97.7008 20.999C97.4659 21.2603 97.165 21.4635 96.7982 21.6087C96.4313 21.7512 96.0117 21.8225 95.5393 21.8225Z" fill="white"/>
<path d="M86.0168 44.0741V43.0131L88.8315 40.2538C89.1007 39.9819 89.3251 39.7404 89.5045 39.5293C89.684 39.3182 89.8186 39.1136 89.9083 38.9157C89.9981 38.7177 90.0429 38.5066 90.0429 38.2823C90.0429 38.0262 89.9849 37.8072 89.8687 37.6251C89.7526 37.4403 89.5929 37.2978 89.3897 37.1975C89.1865 37.0972 88.9556 37.0471 88.6969 37.0471C88.4304 37.0471 88.1968 37.1025 87.9962 37.2134C87.7956 37.3216 87.6399 37.476 87.5291 37.6765C87.4209 37.8771 87.3667 38.116 87.3667 38.3931H85.9693C85.9693 37.8785 86.0867 37.4311 86.3216 37.051C86.5565 36.671 86.8798 36.3767 87.2915 36.1682C87.7059 35.9597 88.181 35.8555 88.7167 35.8555C89.2604 35.8555 89.7381 35.9571 90.1498 36.1603C90.5615 36.3635 90.8809 36.642 91.1079 36.9956C91.3375 37.3493 91.4523 37.7531 91.4523 38.207C91.4523 38.5105 91.3942 38.8088 91.2781 39.1017C91.162 39.3947 90.9574 39.7193 90.6645 40.0756C90.3742 40.4319 89.9664 40.8634 89.4412 41.3702L88.0437 42.7914V42.8468H91.575V44.0741H86.0168Z" fill="white"/>
<rect x="64.5092" y="2.13889" width="48.5741" height="53.5" rx="5.97222" stroke="#3F5BF6" stroke-width="0.796296"/>
</g>
<g filter="url(#filter2_d_25_25245)">
<rect x="126.222" y="1.74074" width="49.3704" height="54.2963" rx="6.37037" fill="white"/>
<path d="M140.913 21.7037L138.625 13.596H140.205L141.666 19.554H141.741L143.301 13.596H144.738L146.301 19.558H146.373L147.833 13.596H149.413L147.125 21.7037H145.676L144.053 16.0148H143.989L142.362 21.7037H140.913ZM152.44 21.8225C151.83 21.8225 151.303 21.6958 150.86 21.4424C150.419 21.1864 150.08 20.8248 149.843 20.3577C149.605 19.8879 149.486 19.335 149.486 18.6989C149.486 18.0734 149.605 17.5245 149.843 17.052C150.083 16.577 150.418 16.2075 150.848 15.9436C151.278 15.677 151.784 15.5437 152.364 15.5437C152.739 15.5437 153.093 15.6044 153.425 15.7258C153.761 15.8446 154.056 16.0293 154.312 16.2801C154.571 16.5308 154.774 16.8501 154.922 17.2381C155.07 17.6234 155.143 18.0827 155.143 18.6158V19.0552H150.159V18.0893H153.77C153.767 17.8148 153.708 17.5707 153.592 17.3569C153.475 17.1405 153.313 16.9702 153.105 16.8462C152.899 16.7221 152.659 16.6601 152.384 16.6601C152.091 16.6601 151.834 16.7314 151.612 16.8739C151.39 17.0138 151.218 17.1985 151.094 17.4281C150.972 17.6551 150.91 17.9045 150.908 18.1764V19.0196C150.908 19.3733 150.972 19.6768 151.101 19.9301C151.231 20.1809 151.412 20.3735 151.644 20.5081C151.876 20.6401 152.148 20.7061 152.459 20.7061C152.668 20.7061 152.857 20.677 153.025 20.619C153.194 20.5583 153.341 20.4699 153.465 20.3537C153.589 20.2376 153.683 20.0938 153.746 19.9222L155.084 20.0727C155 20.4263 154.839 20.7351 154.601 20.999C154.366 21.2603 154.065 21.4635 153.699 21.6087C153.332 21.7512 152.912 21.8225 152.44 21.8225ZM158.612 21.8106C158.135 21.8106 157.707 21.6879 157.33 21.4424C156.952 21.197 156.654 20.8407 156.435 20.3735C156.216 19.9064 156.106 19.3389 156.106 18.6712C156.106 17.9956 156.217 17.4255 156.439 16.961C156.663 16.4938 156.966 16.1415 157.346 15.904C157.726 15.6638 158.149 15.5437 158.616 15.5437C158.973 15.5437 159.266 15.6044 159.495 15.7258C159.725 15.8446 159.907 15.9884 160.042 16.1573C160.176 16.3236 160.28 16.4806 160.354 16.6284H160.414V13.596H161.851V21.7037H160.441V20.7457H160.354C160.28 20.8935 160.174 21.0505 160.034 21.2168C159.894 21.3804 159.709 21.5203 159.479 21.6364C159.25 21.7525 158.961 21.8106 158.612 21.8106ZM159.012 20.6348C159.316 20.6348 159.574 20.553 159.788 20.3894C160.002 20.2231 160.164 19.9922 160.275 19.6966C160.386 19.401 160.441 19.0565 160.441 18.6633C160.441 18.2701 160.386 17.9283 160.275 17.638C160.167 17.3476 160.006 17.122 159.792 16.961C159.581 16.8 159.321 16.7195 159.012 16.7195C158.693 16.7195 158.426 16.8026 158.213 16.9689C157.999 17.1352 157.838 17.3648 157.73 17.6578C157.621 17.9507 157.567 18.2859 157.567 18.6633C157.567 19.0434 157.621 19.3825 157.73 19.6807C157.84 19.9763 158.003 20.2099 158.217 20.3814C158.433 20.5504 158.698 20.6348 159.012 20.6348Z" fill="#344054"/>
<path d="M150.538 44.1849C149.968 44.1849 149.461 44.0873 149.017 43.892C148.577 43.6967 148.228 43.4248 147.972 43.0764C147.716 42.7281 147.58 42.3256 147.565 41.869H149.053C149.066 42.088 149.139 42.2794 149.271 42.443C149.403 42.604 149.578 42.7294 149.797 42.8191C150.016 42.9088 150.262 42.9537 150.534 42.9537C150.824 42.9537 151.081 42.9036 151.306 42.8033C151.53 42.7003 151.706 42.5578 151.832 42.3757C151.959 42.1936 152.021 41.9838 152.018 41.7463C152.021 41.5008 151.958 41.2844 151.828 41.097C151.699 40.9096 151.512 40.7631 151.266 40.6576C151.023 40.552 150.73 40.4992 150.387 40.4992H149.671V39.367H150.387C150.67 39.367 150.916 39.3182 151.128 39.2205C151.341 39.1229 151.509 38.9856 151.63 38.8088C151.752 38.6293 151.811 38.4221 151.808 38.1872C151.811 37.9576 151.76 37.7584 151.654 37.5895C151.551 37.4179 151.405 37.2846 151.215 37.1896C151.027 37.0946 150.807 37.0471 150.554 37.0471C150.305 37.0471 150.076 37.092 149.865 37.1817C149.654 37.2714 149.483 37.3994 149.354 37.5657C149.225 37.7293 149.156 37.9246 149.148 38.1516H147.735C147.745 37.6977 147.876 37.2991 148.127 36.956C148.38 36.6103 148.718 36.3411 149.14 36.1484C149.562 35.9531 150.036 35.8555 150.561 35.8555C151.102 35.8555 151.572 35.9571 151.971 36.1603C152.372 36.3609 152.682 36.6314 152.901 36.9719C153.12 37.3123 153.23 37.6884 153.23 38.1001C153.232 38.5567 153.098 38.9394 152.826 39.2482C152.557 39.557 152.203 39.7589 151.765 39.8539V39.9173C152.335 39.9964 152.772 40.2076 153.075 40.5507C153.381 40.8911 153.533 41.3147 153.531 41.8215C153.531 42.2754 153.401 42.6819 153.143 43.0408C152.887 43.3971 152.533 43.6769 152.082 43.8801C151.633 44.0833 151.118 44.1849 150.538 44.1849Z" fill="#344054"/>
<rect x="126.62" y="2.13889" width="48.5741" height="53.5" rx="5.97222" stroke="#D0D5DD" stroke-width="0.796296"/>
</g>
<g filter="url(#filter3_d_25_25245)">
<rect x="188.333" y="1.74074" width="49.3704" height="54.2963" rx="6.37037" fill="white"/>
<path d="M200.462 14.8272V13.596H206.931V14.8272H204.425V21.7037H202.968V14.8272H200.462ZM209.547 18.1407V21.7037H208.114V13.596H209.516V16.6562H209.587C209.73 16.3131 209.95 16.0425 210.248 15.8446C210.549 15.644 210.932 15.5437 211.396 15.5437C211.819 15.5437 212.187 15.6321 212.501 15.809C212.815 15.9858 213.058 16.2444 213.229 16.5849C213.403 16.9254 213.49 17.341 213.49 17.8319V21.7037H212.057V18.0536C212.057 17.6446 211.952 17.3265 211.741 17.0996C211.532 16.8699 211.239 16.7551 210.862 16.7551C210.608 16.7551 210.381 16.8106 210.181 16.9214C209.983 17.0296 209.827 17.1866 209.714 17.3925C209.603 17.5984 209.547 17.8478 209.547 18.1407ZM218.827 19.1463V15.6229H220.26V21.7037H218.871V20.6229H218.807C218.67 20.9634 218.444 21.2418 218.13 21.4583C217.819 21.6747 217.435 21.7829 216.978 21.7829C216.58 21.7829 216.227 21.6945 215.921 21.5176C215.618 21.3382 215.38 21.0782 215.209 20.7377C215.037 20.3946 214.951 19.9803 214.951 19.4947V15.6229H216.384V19.273C216.384 19.6583 216.49 19.9644 216.701 20.1914C216.912 20.4184 217.189 20.5319 217.532 20.5319C217.744 20.5319 217.948 20.4804 218.146 20.3775C218.344 20.2746 218.506 20.1215 218.633 19.9183C218.762 19.7124 218.827 19.4551 218.827 19.1463ZM221.734 21.7037V15.6229H223.123V16.6364H223.187C223.298 16.2853 223.488 16.0148 223.757 15.8248C224.029 15.6321 224.339 15.5358 224.687 15.5358C224.766 15.5358 224.855 15.5398 224.952 15.5477C225.053 15.553 225.136 15.5622 225.202 15.5754V16.8937C225.141 16.8726 225.045 16.8541 224.913 16.8383C224.783 16.8198 224.658 16.8106 224.537 16.8106C224.275 16.8106 224.041 16.8673 223.832 16.9808C223.626 17.0916 223.464 17.246 223.345 17.444C223.226 17.6419 223.167 17.8702 223.167 18.1289V21.7037H221.734Z" fill="#344054"/>
<path d="M209.593 42.5697V41.4018L213.033 35.9663H214.007V37.629H213.413L211.097 41.2989V41.3622H215.899V42.5697H209.593ZM213.46 44.0741V42.2134L213.476 41.6908V35.9663H214.862V44.0741H213.46Z" fill="#344054"/>
<rect x="188.731" y="2.13889" width="48.5741" height="53.5" rx="5.97222" stroke="#D0D5DD" stroke-width="0.796296"/>
</g>
<g filter="url(#filter4_d_25_25245)">
<rect x="250.444" y="1.74074" width="49.3704" height="54.2963" rx="6.37037" fill="white"/>
<path d="M268.929 21.7037V13.596H274.123V14.8272H270.398V17.0283H273.767V18.2595H270.398V21.7037H268.929ZM275.311 21.7037V15.6229H276.701V16.6364H276.764C276.875 16.2853 277.065 16.0148 277.334 15.8248C277.606 15.6321 277.916 15.5358 278.264 15.5358C278.343 15.5358 278.432 15.5398 278.53 15.5477C278.63 15.553 278.713 15.5622 278.779 15.5754V16.8937C278.718 16.8726 278.622 16.8541 278.49 16.8383C278.361 16.8198 278.235 16.8106 278.114 16.8106C277.853 16.8106 277.618 16.8673 277.409 16.9808C277.203 17.0916 277.041 17.246 276.922 17.444C276.804 17.6419 276.744 17.8702 276.744 18.1289V21.7037H275.311ZM279.731 21.7037V15.6229H281.164V21.7037H279.731ZM280.452 14.7599C280.225 14.7599 280.029 14.6846 279.866 14.5342C279.702 14.3811 279.62 14.1977 279.62 13.9839C279.62 13.7675 279.702 13.5841 279.866 13.4336C280.029 13.2806 280.225 13.204 280.452 13.204C280.681 13.204 280.877 13.2806 281.038 13.4336C281.201 13.5841 281.283 13.7675 281.283 13.9839C281.283 14.1977 281.201 14.3811 281.038 14.5342C280.877 14.6846 280.681 14.7599 280.452 14.7599Z" fill="#344054"/>
<path d="M274.669 44.1849C274.141 44.1849 273.669 44.0859 273.252 43.888C272.835 43.6874 272.503 43.4129 272.258 43.0646C272.015 42.7162 271.886 42.3177 271.87 41.869H273.295C273.322 42.2015 273.465 42.4734 273.727 42.6845C273.988 42.893 274.302 42.9973 274.669 42.9973C274.957 42.9973 275.213 42.9313 275.437 42.7993C275.661 42.6674 275.838 42.4839 275.967 42.249C276.097 42.0141 276.16 41.7463 276.157 41.4454C276.16 41.1392 276.095 40.8674 275.963 40.6299C275.831 40.3923 275.651 40.2063 275.421 40.0717C275.191 39.9344 274.928 39.8658 274.629 39.8658C274.386 39.8632 274.148 39.908 273.913 40.0004C273.678 40.0928 273.492 40.2142 273.355 40.3646L272.028 40.1469L272.452 35.9663H277.155V37.1936H273.667L273.434 39.3432H273.481C273.632 39.1664 273.844 39.0199 274.119 38.9038C274.393 38.785 274.694 38.7256 275.021 38.7256C275.512 38.7256 275.95 38.8418 276.336 39.074C276.721 39.3036 277.024 39.6203 277.246 40.0242C277.468 40.428 277.579 40.8898 277.579 41.4098C277.579 41.9455 277.455 42.4232 277.206 42.8429C276.961 43.2599 276.619 43.5884 276.181 43.8286C275.746 44.0661 275.242 44.1849 274.669 44.1849Z" fill="#344054"/>
<rect x="250.843" y="2.13889" width="48.5741" height="53.5" rx="5.97222" stroke="#D0D5DD" stroke-width="0.796296"/>
</g>
<g filter="url(#filter5_d_25_25245)">
<rect x="312.556" y="1.74074" width="49.3704" height="54.2963" rx="6.37037" fill="white"/>
<path d="M333.447 15.8248C333.41 15.4791 333.254 15.2099 332.979 15.0172C332.708 14.8245 332.354 14.7282 331.919 14.7282C331.612 14.7282 331.35 14.7744 331.131 14.8668C330.912 14.9591 330.744 15.0845 330.628 15.2428C330.512 15.4012 330.452 15.582 330.45 15.7852C330.45 15.9541 330.488 16.1006 330.565 16.2246C330.644 16.3487 330.751 16.4543 330.885 16.5414C331.02 16.6258 331.169 16.6971 331.333 16.7551C331.496 16.8132 331.661 16.862 331.827 16.9016L332.588 17.0916C332.894 17.1629 333.188 17.2592 333.47 17.3806C333.755 17.502 334.01 17.6551 334.234 17.8399C334.461 18.0246 334.641 18.2476 334.773 18.5089C334.905 18.7702 334.971 19.0763 334.971 19.4274C334.971 19.9024 334.849 20.3207 334.607 20.6823C334.364 21.0413 334.013 21.3223 333.554 21.5256C333.097 21.7261 332.544 21.8264 331.895 21.8264C331.264 21.8264 330.716 21.7288 330.252 21.5335C329.79 21.3382 329.428 21.0531 329.167 20.6784C328.908 20.3036 328.769 19.847 328.747 19.3086H330.192C330.214 19.591 330.301 19.8259 330.454 20.0133C330.607 20.2007 330.806 20.3405 331.052 20.4329C331.3 20.5253 331.577 20.5715 331.883 20.5715C332.202 20.5715 332.482 20.524 332.722 20.429C332.965 20.3313 333.155 20.1967 333.292 20.0251C333.429 19.851 333.499 19.6477 333.502 19.4155C333.499 19.2043 333.437 19.0302 333.316 18.8929C333.195 18.753 333.024 18.6369 332.805 18.5445C332.589 18.4495 332.336 18.3651 332.045 18.2912L331.123 18.0536C330.455 17.8821 329.927 17.6221 329.539 17.2737C329.154 16.9227 328.961 16.4569 328.961 15.8763C328.961 15.3986 329.091 14.9802 329.349 14.6213C329.61 14.2624 329.965 13.9839 330.414 13.786C330.863 13.5854 331.371 13.4851 331.938 13.4851C332.514 13.4851 333.018 13.5854 333.451 13.786C333.886 13.9839 334.228 14.2597 334.476 14.6134C334.724 14.9644 334.852 15.3682 334.86 15.8248H333.447ZM337.967 21.8264C337.581 21.8264 337.234 21.7578 336.925 21.6206C336.619 21.4807 336.377 21.2748 336.197 21.003C336.02 20.7311 335.932 20.396 335.932 19.9974C335.932 19.6543 335.995 19.3706 336.122 19.1463C336.249 18.9219 336.421 18.7425 336.64 18.6079C336.859 18.4733 337.106 18.3717 337.381 18.303C337.658 18.2318 337.944 18.1803 338.24 18.1486C338.596 18.1117 338.885 18.0787 339.107 18.0497C339.328 18.018 339.489 17.9705 339.59 17.9072C339.693 17.8412 339.744 17.7396 339.744 17.6023V17.5786C339.744 17.2803 339.656 17.0494 339.479 16.8858C339.302 16.7221 339.047 16.6403 338.715 16.6403C338.364 16.6403 338.085 16.7169 337.88 16.8699C337.676 17.023 337.539 17.2038 337.468 17.4123L336.13 17.2223C336.235 16.8528 336.409 16.544 336.652 16.2959C336.895 16.0452 337.192 15.8578 337.543 15.7337C337.894 15.6071 338.282 15.5437 338.707 15.5437C339 15.5437 339.292 15.578 339.582 15.6466C339.872 15.7153 340.137 15.8288 340.378 15.9871C340.618 16.1428 340.81 16.3553 340.956 16.6245C341.103 16.8937 341.177 17.2302 341.177 17.634V21.7037H339.8V20.8684H339.752C339.665 21.0373 339.542 21.1957 339.384 21.3434C339.228 21.4886 339.032 21.6061 338.794 21.6958C338.559 21.7829 338.283 21.8264 337.967 21.8264ZM338.339 20.7734C338.626 20.7734 338.876 20.7166 339.087 20.6031C339.298 20.487 339.46 20.3339 339.574 20.1439C339.69 19.9539 339.748 19.7467 339.748 19.5224V18.8058C339.703 18.8428 339.627 18.8771 339.519 18.9087C339.413 18.9404 339.294 18.9681 339.162 18.9919C339.03 19.0156 338.9 19.0368 338.77 19.0552C338.641 19.0737 338.529 19.0895 338.434 19.1027C338.22 19.1318 338.029 19.1793 337.86 19.2453C337.691 19.3112 337.558 19.4036 337.46 19.5224C337.362 19.6385 337.313 19.7889 337.313 19.9737C337.313 20.2376 337.41 20.4369 337.602 20.5715C337.795 20.7061 338.041 20.7734 338.339 20.7734ZM345.655 15.6229V16.7314H342.159V15.6229H345.655ZM343.022 14.166H344.455V19.8747C344.455 20.0674 344.484 20.2152 344.542 20.3181C344.603 20.4184 344.682 20.487 344.78 20.524C344.878 20.5609 344.986 20.5794 345.104 20.5794C345.194 20.5794 345.276 20.5728 345.35 20.5596C345.426 20.5464 345.485 20.5345 345.524 20.524L345.766 21.6443C345.689 21.6707 345.58 21.6997 345.437 21.7314C345.297 21.7631 345.126 21.7816 344.922 21.7868C344.563 21.7974 344.24 21.7433 343.952 21.6245C343.665 21.5031 343.436 21.3157 343.268 21.0624C343.101 20.809 343.019 20.4923 343.022 20.1122V14.166Z" fill="#344054"/>
<path d="M336.93 44.1849C336.542 44.1823 336.164 44.115 335.794 43.983C335.425 43.8484 335.092 43.6307 334.797 43.3298C334.501 43.0263 334.266 42.6238 334.092 42.1223C333.918 41.6183 333.832 40.9941 333.835 40.2498C333.835 39.5557 333.908 38.9368 334.056 38.3931C334.204 37.8494 334.417 37.3902 334.694 37.0154C334.971 36.638 335.305 36.3503 335.695 36.1524C336.088 35.9544 336.528 35.8555 337.014 35.8555C337.523 35.8555 337.974 35.9558 338.367 36.1563C338.763 36.3569 339.083 36.6314 339.325 36.9798C339.568 37.3255 339.719 37.7161 339.777 38.1516H338.332C338.258 37.8402 338.106 37.5921 337.877 37.4073C337.65 37.22 337.362 37.1263 337.014 37.1263C336.451 37.1263 336.019 37.3704 335.715 37.8587C335.414 38.3469 335.262 39.0173 335.26 39.8698H335.315C335.444 39.6375 335.612 39.4382 335.818 39.272C336.024 39.1057 336.256 38.9777 336.515 38.888C336.776 38.7956 337.052 38.7494 337.342 38.7494C337.817 38.7494 338.243 38.8629 338.621 39.0899C339.001 39.3168 339.302 39.6296 339.523 40.0281C339.745 40.424 339.855 40.8779 339.852 41.39C339.855 41.9231 339.733 42.4021 339.488 42.827C339.242 43.2493 338.901 43.5818 338.462 43.8247C338.024 44.0675 337.514 44.1876 336.93 44.1849ZM336.922 42.9973C337.21 42.9973 337.467 42.9273 337.694 42.7874C337.921 42.6476 338.101 42.4589 338.233 42.2213C338.365 41.9838 338.429 41.7172 338.427 41.4216C338.429 41.1313 338.366 40.8687 338.237 40.6338C338.11 40.3989 337.935 40.2129 337.71 40.0756C337.486 39.9384 337.23 39.8698 336.942 39.8698C336.728 39.8698 336.529 39.9107 336.344 39.9925C336.16 40.0743 335.999 40.1878 335.861 40.3329C335.724 40.4755 335.616 40.6417 335.537 40.8318C335.46 41.0191 335.421 41.2197 335.418 41.4335C335.421 41.7159 335.487 41.9759 335.616 42.2134C335.745 42.4509 335.924 42.641 336.15 42.7835C336.377 42.926 336.635 42.9973 336.922 42.9973Z" fill="#344054"/>
<rect x="312.954" y="2.13889" width="48.5741" height="53.5" rx="5.97222" stroke="#D0D5DD" stroke-width="0.796296"/>
</g>
<defs>
<filter id="filter0_d_25_25245" x="0.407407" y="0.944442" width="52.5555" height="57.4815" filterUnits="userSpaceOnUse" color-interpolation-filters="sRGB">
<feFlood flood-opacity="0" result="BackgroundImageFix"/>
<feColorMatrix in="SourceAlpha" type="matrix" values="0 0 0 0 0 0 0 0 0 0 0 0 0 0 0 0 0 0 127 0" result="hardAlpha"/>
<feOffset dy="0.796296"/>
<feGaussianBlur stdDeviation="0.796296"/>
<feColorMatrix type="matrix" values="0 0 0 0 0.0627451 0 0 0 0 0.0941176 0 0 0 0 0.156863 0 0 0 0.05 0"/>
<feBlend mode="normal" in2="BackgroundImageFix" result="effect1_dropShadow_25_25245"/>
<feBlend mode="normal" in="SourceGraphic" in2="effect1_dropShadow_25_25245" result="shape"/>
</filter>
<filter id="filter1_d_25_25245" x="62.5185" y="0.944442" width="52.5555" height="57.4815" filterUnits="userSpaceOnUse" color-interpolation-filters="sRGB">
<feFlood flood-opacity="0" result="BackgroundImageFix"/>
<feColorMatrix in="SourceAlpha" type="matrix" values="0 0 0 0 0 0 0 0 0 0 0 0 0 0 0 0 0 0 127 0" result="hardAlpha"/>
<feOffset dy="0.796296"/>
<feGaussianBlur stdDeviation="0.796296"/>
<feColorMatrix type="matrix" values="0 0 0 0 0.0627451 0 0 0 0 0.0941176 0 0 0 0 0.156863 0 0 0 0.05 0"/>
<feBlend mode="normal" in2="BackgroundImageFix" result="effect1_dropShadow_25_25245"/>
<feBlend mode="normal" in="SourceGraphic" in2="effect1_dropShadow_25_25245" result="shape"/>
</filter>
<filter id="filter2_d_25_25245" x="124.63" y="0.944442" width="52.5555" height="57.4815" filterUnits="userSpaceOnUse" color-interpolation-filters="sRGB">
<feFlood flood-opacity="0" result="BackgroundImageFix"/>
<feColorMatrix in="SourceAlpha" type="matrix" values="0 0 0 0 0 0 0 0 0 0 0 0 0 0 0 0 0 0 127 0" result="hardAlpha"/>
<feOffset dy="0.796296"/>
<feGaussianBlur stdDeviation="0.796296"/>
<feColorMatrix type="matrix" values="0 0 0 0 0.0627451 0 0 0 0 0.0941176 0 0 0 0 0.156863 0 0 0 0.05 0"/>
<feBlend mode="normal" in2="BackgroundImageFix" result="effect1_dropShadow_25_25245"/>
<feBlend mode="normal" in="SourceGraphic" in2="effect1_dropShadow_25_25245" result="shape"/>
</filter>
<filter id="filter3_d_25_25245" x="186.741" y="0.944442" width="52.5555" height="57.4815" filterUnits="userSpaceOnUse" color-interpolation-filters="sRGB">
<feFlood flood-opacity="0" result="BackgroundImageFix"/>
<feColorMatrix in="SourceAlpha" type="matrix" values="0 0 0 0 0 0 0 0 0 0 0 0 0 0 0 0 0 0 127 0" result="hardAlpha"/>
<feOffset dy="0.796296"/>
<feGaussianBlur stdDeviation="0.796296"/>
<feColorMatrix type="matrix" values="0 0 0 0 0.0627451 0 0 0 0 0.0941176 0 0 0 0 0.156863 0 0 0 0.05 0"/>
<feBlend mode="normal" in2="BackgroundImageFix" result="effect1_dropShadow_25_25245"/>
<feBlend mode="normal" in="SourceGraphic" in2="effect1_dropShadow_25_25245" result="shape"/>
</filter>
<filter id="filter4_d_25_25245" x="248.852" y="0.944442" width="52.5555" height="57.4815" filterUnits="userSpaceOnUse" color-interpolation-filters="sRGB">
<feFlood flood-opacity="0" result="BackgroundImageFix"/>
<feColorMatrix in="SourceAlpha" type="matrix" values="0 0 0 0 0 0 0 0 0 0 0 0 0 0 0 0 0 0 127 0" result="hardAlpha"/>
<feOffset dy="0.796296"/>
<feGaussianBlur stdDeviation="0.796296"/>
<feColorMatrix type="matrix" values="0 0 0 0 0.0627451 0 0 0 0 0.0941176 0 0 0 0 0.156863 0 0 0 0.05 0"/>
<feBlend mode="normal" in2="BackgroundImageFix" result="effect1_dropShadow_25_25245"/>
<feBlend mode="normal" in="SourceGraphic" in2="effect1_dropShadow_25_25245" result="shape"/>
</filter>
<filter id="filter5_d_25_25245" x="310.963" y="0.944442" width="52.5555" height="57.4815" filterUnits="userSpaceOnUse" color-interpolation-filters="sRGB">
<feFlood flood-opacity="0" result="BackgroundImageFix"/>
<feColorMatrix in="SourceAlpha" type="matrix" values="0 0 0 0 0 0 0 0 0 0 0 0 0 0 0 0 0 0 127 0" result="hardAlpha"/>
<feOffset dy="0.796296"/>
<feGaussianBlur stdDeviation="0.796296"/>
<feColorMatrix type="matrix" values="0 0 0 0 0.0627451 0 0 0 0 0.0941176 0 0 0 0 0.156863 0 0 0 0.05 0"/>
<feBlend mode="normal" in2="BackgroundImageFix" result="effect1_dropShadow_25_25245"/>
<feBlend mode="normal" in="SourceGraphic" in2="effect1_dropShadow_25_25245" result="shape"/>
</filter>
</defs>
</svg>
